<svg width="24" height="24" viewBox="0 0 24 24" fill="none" xmlns="http://www.w3.org/2000/svg">
<path d="M12 2.41089C8.6856 2.41089 6 5.08569 6 8.39889C6 14.1277 12 21.5989 12 21.5989C12 21.5989 18 14.1265 18 8.39889C18 5.08689 15.3144 2.41089 12 2.41089ZM12 11.7121C11.1407 11.7121 10.3166 11.3707 9.70897 10.7631C9.10136 10.1555 8.76 9.33139 8.76 8.47209C8.76 7.61279 9.10136 6.78868 9.70897 6.18106C10.3166 5.57344 11.1407 5.23209 12 5.23209C12.8593 5.23209 13.6834 5.57344 14.291 6.18106C14.8986 6.78868 15.24 7.61279 15.24 8.47209C15.24 9.33139 14.8986 10.1555 14.291 10.7631C13.6834 11.3707 12.8593 11.7121 12 11.7121Z" fill="#F3C653"/>
</svg>
